# xmcd
# Track frame offsets:
# 150
# 19587
# 35700
# 48225
# 63620
# 77067
# 95790
# 108562
# 129697
# 145742
# 160022
# 179220
#
# Disc length: 2590 seconds
# Revision: 0
# Processed by: cddbd v1.4PL0 Copyright (c) Steve Scherf et al.
# Submitted via: VisiTrax 2.9.5.180 - For more info visit www.synapsa.com
#
DISCID=ab0a1c0c
DTITLE=Dan Roberts - There's A Little Cowboy In All Of Us
DYEAR=2000
DGENRE=Cowboy
TTITLE0=There's A Little Cowboy In All Of Us
TTITLE1=The Yellow Stud
TTITLE2=The Sing I Love The Most
TTITLE3=Old Cowboy Blues
TTITLE4=Palimino Pal Of Mine
TTITLE5=True Blue Heeler
TTITLE6=Saddle Pals
TTITLE7=I Miss John Wayne
TTITLE8=Unswung
TTITLE9=The Hero Is A Clown
TTITLE10=Horsetradin
TTITLE11=Don't Bury Me In Tennessee
EXTD=
EXTT0=
EXTT1=
EXTT2=
EXTT3=
EXTT4=
EXTT5=
EXTT6=
EXTT7=
EXTT8=
EXTT9=
EXTT10=
EXTT11=
PLAYORDER=
